<?xml version="1.0" encoding="utf-8"?>
<!-- #eaf033 YELLOW -->
<!-- #ea3333 RED -->
<!-- #888888 GRAY -->
<svg style="color: #888888" width="6632.7px" height="2048" xmlns="http://www.w3.org/2000/svg">
  <path style="fill: #1a1a1a; stroke: none" d="M 0 0 L 0 2048 L 6632.748 2048 L 6632.748 0 L 0 0 Z" />
  <path
    fill="currentColor"
    style="stroke: none"
    d="M 3043.319 450.428 L 3040.319 450.92 C 3038.31 451.254 3036.287 451.557 3034.319 452.093 C 3032.279 452.649 3030.329 453.463 3028.358 454.22 C 3027.137 454.689 3025.916 455.135 3024.743 455.721 C 3023.537 456.323 3022.39 457.05 3021.23 457.735 L 3018.315 459.464 C 3017.287 460.111 3016.281 460.787 3015.319 461.529 C 3013.177 463.181 3011.232 465.081 3009.334 467.004 C 3008.368 467.982 3007.396 468.964 3006.493 470 L 3004.787 472 C 3004.011 472.982 3003.25 473.969 3002.54 475 C 3001.869 475.974 3001.243 476.975 3000.653 478 L 2999.026 481 L 2997.442 484 L 2996.517 486 L 2995.787 488 C 2995.464 488.985 2995.215 489.993 2994.974 491 L 2994.323 494 C 2993.987 495.655 2993.658 497.318 2993.49 499 C 2993.357 500.329 2993.335 501.665 2993.323 503 L 2993.319 507 L 2993.319 518 L 2993.319 562 L 2993.319 912 L 2993.319 943 L 2993.319 951 C 2993.32 953.33 2993.256 955.678 2993.49 958 C 2993.658 959.682 2993.971 961.356 2994.358 963 C 2994.838 965.035 2995.495 967.018 2996.154 969 C 2997.058 971.72 2997.993 974.442 2999.3 977 C 3000.184 978.728 3001.235 980.363 3002.273 982 C 3003.356 983.706 3004.429 985.423 3005.698 986.999 C 3007.916 989.754 3010.546 992.149 3013.319 994.331 C 3014.932 995.6 3016.606 996.781 3018.319 997.91 C 3019.293 998.553 3020.309 999.131 3021.319 999.715 L 3024.319 1001.407 C 3025.306 1001.953 3026.292 1002.499 3027.319 1002.969 C 3028.618 1003.564 3029.964 1004.039 3031.319 1004.487 L 3034.319 1005.441 C 3035.31 1005.725 3036.311 1005.968 3037.319 1006.181 C 3038.971 1006.531 3040.634 1006.792 3042.319 1006.911 C 3043.317 1006.981 3044.319 1006.987 3045.319 1006.996 L 3049.319 1007 L 3052.319 1006.999 L 3055.319 1006.961 C 3056.324 1006.92 3057.321 1006.841 3058.319 1006.711 C 3059.325 1006.58 3060.324 1006.391 3061.319 1006.192 C 3062.667 1005.923 3063.996 1005.603 3065.319 1005.23 C 3066.675 1004.847 3067.991 1004.323 3069.319 1003.857 C 3070.651 1003.39 3072.003 1002.966 3073.319 1002.455 C 3074.346 1002.056 3075.339 1001.602 3076.319 1001.099 L 3078.319 999.985 L 3080.319 998.796 C 3081.672 997.965 3083.03 997.143 3084.319 996.214 C 3085.727 995.2 3087.043 994.083 3088.318 992.907 C 3089.334 991.97 3090.328 990.998 3091.28 989.996 L 3093.145 988 C 3094.278 986.705 3095.376 985.39 3096.392 984 C 3097.56 982.4 3098.598 980.721 3099.577 979 C 3100.501 977.374 3101.392 975.722 3102.125 974 C 3102.68 972.694 3103.12 971.339 3103.586 970 L 3104.609 967 L 3104.9 966 C 3105.279 964.687 3105.5 963.329 3105.814 962 L 3106.805 958 L 3107.135 956 C 3107.293 954.674 3107.307 953.333 3107.315 952 L 3107.319 947 L 3107.319 933 L 3107.319 897 L 3107.319 546 L 3107.319 517 L 3107.319 507 C 3107.315 504.664 3107.353 502.319 3107.019 500 C 3106.626 497.276 3105.778 494.646 3105.05 492 C 3104.589 490.327 3104.188 488.637 3103.606 487 C 3103 485.295 3102.246 483.637 3101.479 482 C 3100.678 480.293 3099.832 478.614 3098.855 477 C 3097.807 475.271 3096.639 473.611 3095.419 472 C 3093.84 469.915 3092.158 467.914 3090.28 466.09 C 3088.724 464.581 3087.047 463.206 3085.319 461.9 C 3083.715 460.687 3082.066 459.523 3080.319 458.525 C 3079.024 457.785 3077.664 457.177 3076.319 456.537 L 3074.319 455.58 C 3073.001 454.948 3071.693 454.314 3070.319 453.81 C 3069.011 453.331 3067.665 452.983 3066.319 452.63 L 3064.319 452.13 L 3061.319 451.449 C 3059.992 451.183 3058.654 450.972 3057.319 450.754 C 3055.657 450.482 3054.001 450.205 3052.319 450.089 C 3050.654 449.975 3048.986 450.008 3047.319 450.039 L 3046.319 450.089 L 3045.319 450.17 L 3043.319 450.428 M 3568.319 450.428 L 3566.319 450.755 C 3564.979 450.98 3563.649 451.212 3562.319 451.5 C 3560.969 451.793 3559.649 452.204 3558.319 452.591 C 3557.309 452.885 3556.299 453.185 3555.319 453.544 C 3553.599 454.17 3551.959 454.948 3550.319 455.76 C 3548.619 456.603 3546.939 457.478 3545.319 458.464 C 3543.589 459.516 3541.929 460.679 3540.319 461.9 C 3538.589 463.208 3536.909 464.58 3535.359 466.09 C 3533.479 467.914 3531.799 469.915 3530.219 472 C 3528.999 473.615 3527.859 475.283 3526.779 477 C 3526.179 477.972 3525.639 478.988 3525.099 480 L 3524.079 482 L 3523.579 483 C 3522.959 484.313 3522.359 485.631 3521.869 487 C 3521.519 487.985 3521.229 488.992 3520.959 490 L 3519.949 494 C 3519.449 495.986 3518.909 497.971 3518.619 500 C 3518.339 501.991 3518.329 503.993 3518.319 506 L 3518.319 511 L 3518.319 527 L 3518.319 568 L 3518.319 914 L 3518.319 942 L 3518.319 949 L 3518.319 952 C 3518.339 953.335 3518.359 954.67 3518.489 956 C 3518.659 957.681 3518.969 959.356 3519.359 961 C 3519.839 963.033 3520.509 965.008 3521.129 967 C 3521.649 968.676 3522.139 970.363 3522.779 972 C 3523.179 973.018 3523.639 974.012 3524.099 975 C 3524.739 976.348 3525.399 977.684 3526.099 979 C 3527.019 980.719 3527.969 982.415 3529.109 984 C 3530.929 986.54 3533.099 988.796 3535.319 990.985 C 3536.299 991.951 3537.299 992.892 3538.319 993.816 L 3539.319 994.674 L 3541.319 996.239 C 3542.629 997.179 3543.949 998.085 3545.319 998.934 C 3546.939 999.937 3548.589 1000.874 3550.319 1001.676 C 3551.299 1002.131 3552.299 1002.554 3553.319 1002.91 C 3554.969 1003.487 3556.649 1003.979 3558.319 1004.502 L 3561.319 1005.441 C 3563.289 1005.979 3565.289 1006.444 3567.319 1006.711 C 3568.319 1006.842 3569.309 1006.92 3570.319 1006.961 L 3573.319 1006.999 L 3576.319 1007 C 3578.989 1006.999 3581.669 1007.056 3584.319 1006.711 C 3585.319 1006.58 3586.329 1006.398 3587.319 1006.192 C 3588.319 1005.984 3589.329 1005.787 3590.319 1005.522 L 3592.319 1004.961 C 3593.669 1004.532 3595.009 1004.077 3596.319 1003.547 C 3598.019 1002.859 3599.679 1002.062 3601.319 1001.241 C 3603.369 1000.216 3605.399 999.154 3607.319 997.899 C 3609.059 996.762 3610.689 995.484 3612.319 994.192 C 3613.639 993.135 3614.949 992.031 3616.149 990.829 C 3617.049 989.927 3617.889 988.964 3618.699 987.985 C 3619.519 987.009 3620.309 986.01 3621.079 985 C 3623.019 982.469 3624.879 979.84 3626.339 977 C 3626.999 975.705 3627.579 974.355 3628.109 973 C 3628.629 971.68 3629.159 970.357 3629.569 969 C 3629.879 968.005 3630.169 967.009 3630.419 966 L 3631.109 963 C 3631.459 961.345 3631.809 959.678 3632.029 958 C 3632.159 957.002 3632.239 956.005 3632.279 955 L 3632.319 952 L 3632.319 948 L 3632.319 932 L 3632.319 889 L 3632.319 542 L 3632.319 513 L 3632.319 506 C 3632.319 504.334 3632.339 502.663 3632.229 501 C 3632.119 499.319 3631.839 497.664 3631.589 496 C 3631.339 494.325 3631.149 492.64 3630.709 491 C 3630.439 489.982 3630.089 488.98 3629.699 488 C 3629.039 486.308 3628.319 484.643 3627.539 483 C 3626.409 480.608 3625.209 478.224 3623.769 476 C 3622.869 474.612 3621.879 473.297 3620.849 472 L 3619.149 470 C 3618.239 468.965 3617.269 467.981 3616.309 467.004 C 3614.409 465.08 3612.459 463.185 3610.319 461.529 C 3608.729 460.301 3607.029 459.25 3605.319 458.208 C 3604.019 457.415 3602.689 456.649 3601.319 455.981 C 3599.699 455.192 3598.009 454.573 3596.319 453.954 C 3594.669 453.351 3593.029 452.754 3591.319 452.339 C 3590.329 452.099 3589.319 451.933 3588.319 451.757 L 3584.319 451.08 L 3581.319 450.59 C 3580.319 450.431 3579.329 450.267 3578.319 450.17 C 3576.989 450.041 3575.649 449.996 3574.319 450.008 C 3573.319 450.017 3572.319 450.023 3571.319 450.089 C 3570.309 450.157 3569.319 450.285 3568.319 450.428 M 2897.319 553.598 L 2896.319 553.876 L 2893.319 554.799 C 2891.303 555.396 2889.261 555.904 2887.319 556.724 C 2885.944 557.305 2884.627 558.017 2883.319 558.735 C 2881.966 559.477 2880.628 560.247 2879.319 561.065 C 2877.599 562.14 2875.936 563.289 2874.32 564.514 C 2872.952 565.551 2871.67 566.709 2870.408 567.87 C 2868.622 569.515 2866.898 571.23 2865.334 573.089 C 2863.761 574.959 2862.35 576.955 2861.015 579 C 2860.371 579.987 2859.743 580.985 2859.145 582 C 2858.568 582.98 2858.008 583.97 2857.525 585 C 2856.768 586.614 2856.225 588.312 2855.66 590 C 2855.327 590.996 2854.97 591.989 2854.685 593 C 2854.218 594.654 2853.83 596.327 2853.439 598 C 2853.207 598.996 2852.96 599.992 2852.783 601 C 2852.608 601.993 2852.466 602.993 2852.409 604 C 2852.297 605.998 2852.32 608 2852.319 610 L 2852.319 621 L 2852.319 658 L 2852.319 773 L 2852.319 829 L 2852.319 845 L 2852.32 850 C 2852.328 851.667 2852.315 853.34 2852.493 855 C 2852.674 856.694 2853.053 858.346 2853.449 860 L 2853.949 862 L 2854.758 865 C 2855.064 866.01 2855.384 867.022 2855.783 868 L 2856.631 870 L 2858.078 873 C 2858.926 874.695 2859.796 876.381 2860.783 878 C 2861.835 879.727 2862.998 881.388 2864.219 883 C 2865.527 884.727 2866.899 886.405 2868.409 887.961 C 2870.233 889.84 2872.233 891.521 2874.319 893.1 C 2875.931 894.321 2877.592 895.485 2879.319 896.536 C 2880.298 897.132 2881.303 897.684 2882.319 898.215 C 2883.306 898.731 2884.305 899.227 2885.319 899.688 C 2887.274 900.575 2889.286 901.31 2891.319 901.996 L 2894.319 902.961 L 2896.319 903.497 C 2897.633 903.827 2898.984 904.023 2900.319 904.245 C 2901.98 904.522 2903.637 904.795 2905.319 904.911 C 2906.316 904.979 2907.32 904.995 2908.319 904.995 L 2911.319 904.961 L 2913.319 904.83 C 2914.66 904.72 2915.992 904.462 2917.319 904.245 C 2918.657 904.027 2919.997 903.803 2921.319 903.5 C 2922.665 903.192 2923.993 902.802 2925.319 902.42 L 2928.319 901.539 L 2930.319 900.829 L 2932.319 899.985 L 2934.319 899.076 C 2935.667 898.453 2937.026 897.836 2938.319 897.103 C 2940.749 895.724 2943.121 894.212 2945.319 892.482 C 2947.076 891.1 2948.716 889.581 2950.28 887.985 C 2951.526 886.714 2952.745 885.397 2953.851 884 L 2955.395 882 C 2956.103 881.014 2956.794 880.02 2957.453 879 C 2958.498 877.383 2959.485 875.722 2960.348 874 C 2960.84 873.02 2961.288 872.015 2961.703 871 L 2962.883 868 L 2963.573 866 C 2964.009 864.687 2964.345 863.34 2964.689 862 L 2965.189 860 C 2965.425 859.004 2965.677 858.009 2965.855 857 C 2966.031 856.007 2966.172 855.007 2966.229 854 C 2966.341 852.002 2966.318 850 2966.319 848 L 2966.319 837 L 2966.319 800 L 2966.319 686 L 2966.319 628 L 2966.319 612 L 2966.318 607 C 2966.31 605.333 2966.323 603.66 2966.145 602 C 2965.928 599.967 2965.425 597.988 2964.969 596 C 2964.663 594.666 2964.4 593.315 2964.019 592 C 2963.724 590.982 2963.395 589.973 2962.971 589 C 2962.233 587.303 2961.399 585.65 2960.563 584 L 2959.007 581 C 2958.25 579.626 2957.437 578.29 2956.545 577 C 2955.596 575.628 2954.565 574.308 2953.512 573.015 C 2952.472 571.738 2951.399 570.493 2950.238 569.325 C 2948.916 567.995 2947.482 566.766 2946.033 565.579 C 2945.134 564.844 2944.228 564.107 2943.28 563.435 C 2940.746 561.641 2938.102 559.991 2935.319 558.609 C 2934.334 558.12 2933.334 557.68 2932.319 557.257 L 2930.319 556.519 L 2929.319 556.194 L 2926.319 555.258 L 2924.319 554.579 C 2923 554.126 2921.691 553.651 2920.319 553.379 C 2918.667 553.051 2916.996 553.027 2915.319 553.004 L 2909.319 553 L 2904.319 553.001 L 2901.319 553.043 L 2899.319 553.209 L 2897.319 553.598 M 3705.319 553.439 C 3704.319 553.597 3703.309 553.792 3702.319 554.015 L 3700.319 554.479 C 3699.309 554.753 3698.309 555.035 3697.319 555.387 C 3695.249 556.124 3693.279 557.106 3691.319 558.088 C 3689.979 558.759 3688.609 559.409 3687.319 560.171 L 3685.319 561.384 C 3684.309 562.047 3683.309 562.725 3682.319 563.429 C 3679.539 565.419 3676.839 567.534 3674.489 570.039 C 3673.329 571.289 3672.239 572.627 3671.219 574 C 3670.009 575.625 3668.839 577.27 3667.779 579 C 3666.799 580.62 3665.929 582.305 3665.079 584 C 3664.259 585.642 3663.459 587.297 3662.769 589 C 3661.979 590.956 3661.319 592.97 3660.749 595 C 3660.189 596.969 3659.709 598.963 3659.489 601 C 3659.349 602.328 3659.339 603.666 3659.319 605 L 3659.319 609 L 3659.319 620 L 3659.319 655 L 3659.319 761 L 3659.319 825 L 3659.319 845 L 3659.319 850 L 3659.359 853 L 3659.489 855 C 3659.579 856.009 3659.779 857.011 3659.989 858 C 3660.489 860.365 3661.229 862.678 3661.899 865 C 3662.379 866.674 3662.819 868.361 3663.409 870 C 3664.159 872.079 3665.099 874.081 3666.199 876 C 3667.389 878.093 3668.769 880.08 3670.219 882 C 3671.259 883.374 3672.339 884.716 3673.489 885.999 C 3674.409 887.019 3675.369 887.993 3676.329 888.96 C 3677.289 889.909 3678.289 890.814 3679.319 891.674 C 3680.909 892.999 3682.599 894.178 3684.319 895.326 C 3686.879 897.034 3689.499 898.664 3692.319 899.907 C 3693.619 900.48 3694.959 900.964 3696.319 901.384 L 3699.319 902.265 L 3701.319 902.766 L 3704.319 903.424 C 3705.989 903.796 3707.639 904.214 3709.319 904.536 C 3710.309 904.727 3711.309 904.836 3712.319 904.91 C 3713.319 904.982 3714.319 904.992 3715.319 904.992 C 3716.659 904.992 3717.989 904.939 3719.319 904.83 C 3720.659 904.721 3721.989 904.464 3723.319 904.282 L 3726.319 903.935 L 3727.319 903.805 L 3729.319 903.392 L 3730.319 903.1 L 3734.319 901.731 C 3735.659 901.276 3737.009 900.866 3738.319 900.34 C 3741.429 899.095 3744.489 897.702 3747.319 895.907 C 3748.689 895.035 3750.019 894.083 3751.319 893.1 C 3752.669 892.075 3753.989 891.006 3755.229 889.841 C 3756.949 888.211 3758.499 886.396 3760.029 884.576 C 3761.519 882.786 3762.959 880.956 3764.229 878.996 C 3765.469 877.074 3766.539 875.046 3767.559 873 C 3768.539 871.043 3769.499 869.07 3770.219 867 C 3771.009 864.722 3771.439 862.346 3771.969 860 C 3772.419 858.009 3772.929 856.034 3773.149 854 C 3773.289 852.671 3773.299 851.334 3773.319 850 L 3773.319 846 L 3773.319 835 L 3773.319 800 L 3773.319 694 L 3773.319 632 L 3773.319 613 L 3773.319 608 L 3773.279 605 L 3773.149 603 C 3773.029 601.651 3772.729 600.319 3772.429 599 L 3771.689 596 C 3770.899 592.954 3770.059 589.918 3768.869 587 C 3768.169 585.283 3767.359 583.611 3766.439 582 C 3765.039 579.543 3763.379 577.244 3761.669 575.001 C 3760.159 573.03 3758.599 571.077 3756.879 569.286 C 3755.739 568.102 3754.529 566.995 3753.279 565.924 C 3751.999 564.824 3750.699 563.756 3749.319 562.785 C 3746.809 561.013 3744.059 559.617 3741.319 558.248 C 3739.359 557.27 3737.389 556.28 3735.319 555.548 C 3733.369 554.858 3731.339 554.417 3729.319 554.004 C 3727.329 553.599 3725.339 553.231 3723.319 553.089 C 3722.319 553.02 3721.319 553.013 3720.319 553.004 L 3716.319 553 L 3712.319 553.001 C 3710.979 553.005 3709.649 553.017 3708.319 553.089 C 3707.309 553.144 3706.309 553.282 3705.319 553.439 M 3311.319 555 L 3311.099 556.671 L 3310.959 557.159 L 3310.719 558.161 L 3309.869 561.005 L 3308.749 565 C 3308.109 567.019 3307.359 569 3306.659 571 L 3305.269 575 L 3303.839 579 L 3302.239 584 L 3300.759 588 C 3300.409 588.991 3300.079 589.985 3299.809 591 L 3299.029 594 L 3298.429 596 L 3297.059 600 L 3295.819 604 L 3294.819 607 L 3292.969 613 C 3292.179 615.344 3291.236 617.632 3290.527 620 C 3289.936 621.977 3289.548 624.004 3289.03 626 C 3288.767 627.017 3288.431 628.01 3288.08 629 L 3286.93 632 L 3285.824 635 L 3284.828 638 L 3283.863 641 L 3282.637 645 L 3281.566 648 C 3280.969 649.66 3280.361 651.318 3279.827 653 C 3279.093 655.317 3278.552 657.688 3277.801 660 L 3276.064 665 L 3274.599 670 C 3274.014 671.948 3273.352 673.871 3272.838 675.839 L 3272.517 677.329 L 3272.319 679 L 3142.319 679 L 3143.405 680.485 L 3143.836 680.869 L 3144.64 681.695 L 3146.378 683.126 L 3148.324 684.576 L 3151.319 686.709 L 3156.319 690.28 L 3160.319 693.036 C 3161.334 693.749 3162.331 694.484 3163.319 695.235 L 3166.319 697.576 L 3169.319 699.845 C 3171.942 701.768 3174.673 703.536 3177.319 705.427 L 3183.319 709.849 L 3189.319 714.151 L 3193.319 717.116 L 3198.319 720.734 L 3202.319 723.718 L 3207.319 727.285 L 3212.319 731.105 C 3213.964 732.336 3215.646 733.516 3217.319 734.709 L 3228.319 742.579 L 3232.319 745.424 L 3237.319 749.127 C 3238.971 750.364 3240.652 751.575 3242.246 752.888 C 3243.332 753.784 3244.46 754.819 3244.966 756.174 L 3245.198 757.09 L 3245.241 758.039 L 3245.131 759.015 L 3244.64 761.001 L 3244.038 763 L 3243.175 766 C 3242.777 767.345 3242.37 768.683 3241.884 770 C 3241.146 771.999 3240.333 773.971 3239.678 776 C 3239.358 776.992 3239.067 777.988 3238.818 779 C 3238.492 780.33 3238.268 781.683 3237.889 783 C 3237.496 784.367 3236.962 785.676 3236.449 787 L 3235.334 790 C 3234.41 792.641 3233.669 795.337 3232.814 798 L 3231.813 801 L 3230.814 804 L 3229.064 809 L 3227.898 813 C 3227.322 815.003 3226.748 817.01 3226.128 819 L 3224.824 823 L 3222.975 829 L 3221.319 834 L 3218.652 842 L 3216.986 847 L 3215.344 852 C 3214.715 854.001 3214.145 856.018 3213.458 858 L 3212.733 860 C 3212.251 861.327 3211.775 862.654 3211.348 864 L 3209.599 870 C 3209.015 871.948 3208.352 873.871 3207.838 875.839 L 3207.517 877.329 L 3207.319 879 L 3208.99 878.267 L 3210.479 877.434 L 3212.344 876.236 L 3215.319 874.115 L 3220.319 870.427 L 3227.319 865.573 C 3230.36 863.399 3233.31 861.102 3236.319 858.884 L 3243.319 853.849 L 3252.319 847.151 L 3258.319 842.849 L 3264.319 838.424 L 3269.319 834.849 L 3274.319 831.151 L 3279.319 827.576 L 3283.319 824.629 L 3286.319 822.424 L 3290.319 819.576 L 3296.319 815.151 L 3303.319 810.14 L 3306.319 807.995 L 3308.319 806.603 C 3309.509 805.815 3310.839 804.971 3312.319 804.976 C 3313.819 804.981 3315.139 805.835 3316.319 806.653 L 3318.319 808.11 L 3321.319 810.29 L 3324.319 812.421 L 3327.319 814.579 L 3331.319 817.424 L 3336.319 821.116 L 3340.319 824 L 3345.319 827.579 L 3351.319 831.884 L 3360.319 838.576 L 3365.319 842.151 L 3371.319 846.576 L 3376.319 850.151 L 3381.319 853.849 L 3386.319 857.424 L 3389.319 859.629 L 3393.319 862.576 L 3398.319 866.151 L 3402.319 869.116 L 3406.319 872 L 3410.319 874.88 C 3411.579 875.795 3412.839 876.73 3414.159 877.563 L 3415.159 878.094 L 3415.649 878.387 L 3417.319 879 L 3417.119 877.329 L 3416.799 875.839 L 3416.279 873.975 L 3415.339 871 L 3413.799 866 L 3411.669 860 C 3411.019 858.019 3410.469 856.006 3409.899 854 L 3408.429 849 L 3407.459 846 L 3406.009 842 C 3405.559 840.677 3405.129 839.344 3404.739 838 C 3404.169 835.995 3403.619 833.982 3402.969 832 L 3401.179 827 L 3399.459 822 C 3398.999 820.668 3398.499 819.351 3398.089 818 C 3397.689 816.68 3397.389 815.333 3397.029 814 L 3396.429 812 C 3395.979 810.647 3395.439 809.326 3394.919 808 C 3394.139 806.013 3393.339 804.031 3392.679 802 C 3392.349 801.008 3392.059 800.009 3391.789 799 L 3391.039 796 C 3390.579 794.314 3390.029 792.66 3389.489 791 L 3387.859 786 L 3386.969 783 L 3385.249 778 L 3384.299 775 L 3383.039 771 L 3381.899 767 L 3380.979 764 L 3380.009 761.001 L 3379.509 759.015 L 3379.399 758.039 L 3379.439 757.09 L 3379.669 756.174 L 3380.109 755.3 L 3380.729 754.464 L 3382.389 752.888 L 3383.339 752.13 L 3386.319 749.884 L 3392.319 745.579 L 3395.319 743.421 L 3400.319 739.849 L 3404.319 736.873 L 3414.279 729.428 C 3415.759 728.326 3417.229 727.198 3418.739 726.134 L 3422.359 723.704 L 3425.319 721.612 L 3431.319 717.151 L 3438.319 712.116 L 3446.319 706.151 L 3451.319 702.579 L 3454.319 700.421 L 3457.319 698.29 L 3460.319 696.116 L 3464.319 693.151 L 3471.319 688.116 L 3476.319 684.428 C 3477.579 683.521 3478.859 682.651 3480.159 681.806 L 3481.649 680.888 L 3483.319 680 L 3482.229 679.415 L 3481.799 679.358 L 3480.999 679.161 L 3479.259 679.034 L 3476.319 679.001 L 3469.319 679 L 3443.319 679 L 3352.319 679 L 3352.119 677.329 L 3351.799 675.839 C 3351.369 674.205 3350.849 672.604 3350.319 671 L 3348.319 665 C 3347.779 663.343 3347.239 661.688 3346.799 660 C 3346.359 658.337 3346.049 656.644 3345.549 655 L 3344.859 653 C 3344.199 651.339 3343.469 649.702 3342.909 648 C 3342.589 647.012 3342.359 646.004 3342.099 645 C 3341.829 643.991 3341.549 642.993 3341.229 642 L 3339.819 638 L 3338.819 635 L 3338.099 633 L 3337.009 630 L 3336.039 627 C 3335.039 623.688 3334.339 620.298 3333.289 617 C 3332.859 615.653 3332.389 614.323 3331.899 613 L 3330.739 610 C 3330.129 608.345 3329.539 606.678 3328.989 605 C 3328.549 603.673 3328.129 602.341 3327.739 601 L 3326.599 597 C 3325.989 594.985 3325.329 592.983 3324.629 591 C 3323.799 588.659 3322.829 586.365 3322.069 584 C 3321.639 582.678 3321.279 581.335 3320.899 580 L 3319.729 576 L 3318.799 573 L 3317.009 568 L 3315.319 563 L 3314.359 560.025 L 3313.839 558.161 L 3313.519 556.671 L 3313.319 555 L 3311.319 555 M 2942.319 1094 L 2943.405 1094.58 L 2943.836 1094.64 L 2944.64 1094.84 L 2946.378 1094.97 L 2950.319 1095 L 2960.319 1095 L 2996.319 1095 L 2995.233 1094.42 L 2994.802 1094.36 L 2993.998 1094.16 L 2992.26 1094.03 L 2988.319 1094 L 2978.319 1094 L 2942.319 1094 M 3092.319 1094 L 3093.405 1094.58 L 3093.836 1094.64 L 3094.64 1094.84 L 3096.378 1094.97 L 3100.319 1095 L 3110.319 1095 L 3146.319 1095 L 3273.319 1095 L 3273.319 1135 L 3273.904 1133.91 L 3273.961 1133.48 L 3274.159 1132.68 C 3274.301 1131.46 3274.301 1130.22 3274.316 1129 L 3274.319 1124 L 3274.319 1105 L 3274.318 1102 C 3274.313 1100.68 3274.323 1099.37 3274.171 1098.06 L 3273.716 1096.32 L 3273.291 1095.6 L 3272.716 1095.03 L 3271.171 1094.32 L 3270.26 1094.15 L 3268.314 1094.02 L 3265.319 1094 L 3259.319 1094 L 3225.319 1094 L 3092.319 1094 M 3376.319 1094 L 3377.409 1094.58 L 3377.839 1094.64 L 3378.639 1094.84 L 3380.379 1094.97 L 3384.319 1095 L 3394.319 1095 L 3432.319 1095 L 3431.229 1094.42 L 3430.799 1094.36 L 3429.999 1094.16 L 3428.259 1094.03 L 3424.319 1094 L 3414.319 1094 L 3376.319 1094 M 3557.319 1094 L 3558.409 1094.58 L 3558.839 1094.64 L 3559.639 1094.84 C 3560.859 1094.98 3562.099 1094.98 3563.319 1095 L 3570.319 1095 L 3596.319 1095 L 3685.319 1095 L 3684.229 1094.42 L 3683.799 1094.36 L 3682.999 1094.16 C 3681.779 1094.02 3680.539 1094.02 3679.319 1094 L 3672.319 1094 L 3646.319 1094 L 3557.319 1094 M 2929.319 1095 L 2930.359 1095.58 L 2930.678 1095.64 L 2931.797 1095.9 L 2933.319 1096 L 2932.279 1095.42 L 2931.96 1095.36 L 2930.841 1095.1 L 2929.319 1095 Z"
  />
  <path
    d="M 2936.319 1352 L 2875.319 1352 L 2875.319 1369 L 2875.32 1375 C 2875.328 1376.67 2875.323 1378.34 2875.49 1380 C 2875.624 1381.34 2875.863 1382.68 2876.127 1384 C 2876.395 1385.34 2876.698 1386.68 2877.064 1388 C 2877.437 1389.35 2877.87 1390.68 2878.323 1392 C 2879.018 1394.03 2879.731 1396.05 2880.642 1398 C 2881.449 1399.72 2882.381 1401.38 2883.385 1403 C 2884.454 1404.72 2885.605 1406.39 2886.837 1408 C 2887.9 1409.39 2889.101 1410.69 2890.359 1411.91 C 2892.192 1413.68 2894.21 1415.22 2896.319 1416.64 C 2898.252 1417.95 2900.258 1419.13 2902.319 1420.22 C 2904.603 1421.43 2906.933 1422.55 2909.319 1423.55 C 2910.622 1424.09 2911.97 1424.55 2913.319 1424.96 C 2915.292 1425.56 2917.301 1425.98 2919.319 1426.4 L 2923.319 1427.2 C 2925.314 1427.58 2927.315 1427.92 2929.319 1428.25 C 2930.648 1428.46 2931.977 1428.7 2933.319 1428.83 C 2934.982 1428.99 2936.65 1428.99 2938.319 1429 L 2943.319 1429 L 2960.319 1429 L 2978.319 1429 L 2994.319 1429 L 3000.319 1429 C 3001.652 1429 3002.988 1429 3004.319 1428.91 C 3006 1428.8 3007.653 1428.51 3009.319 1428.27 C 3010.99 1428.03 3012.666 1427.84 3014.319 1427.49 C 3015.328 1427.27 3016.321 1426.99 3017.319 1426.73 L 3019.319 1426.23 L 3022.319 1425.58 C 3024.344 1425.11 3026.36 1424.61 3028.319 1423.91 C 3030.732 1423.04 3033.03 1421.9 3035.319 1420.75 C 3038.06 1419.38 3040.821 1418 3043.319 1416.21 C 3045.099 1414.94 3046.739 1413.49 3048.304 1411.96 C 3049.282 1411.01 3050.215 1410.01 3051.134 1409 L 3052.79 1407 C 3053.788 1405.75 3054.639 1404.38 3055.442 1403 L 3056.534 1401 L 3057.534 1399 L 3058.007 1398 L 3058.866 1396 C 3059.491 1394.35 3060.113 1392.71 3060.559 1391 L 3061.008 1389 L 3061.449 1386 C 3061.736 1384 3062.091 1382.01 3062.23 1380 C 3062.321 1378.67 3062.314 1377.33 3062.318 1376 L 3062.319 1372 L 3062.319 1357 L 3062.319 1301 L 3062.318 1296 C 3062.31 1294.33 3062.315 1292.66 3062.148 1291 C 3061.98 1289.32 3061.668 1287.65 3061.304 1286 C 3060.926 1284.29 3060.49 1282.61 3059.787 1281 C 3058.838 1278.84 3057.532 1276.83 3055.99 1275.04 L 3054.226 1273.19 L 3053.279 1272.33 L 3052.304 1271.53 L 3050.318 1270.09 L 3048.319 1268.81 L 3046.319 1267.6 C 3044.996 1266.82 3043.672 1266.04 3042.319 1265.31 C 3041.007 1264.6 3039.672 1263.94 3038.319 1263.31 C 3036.671 1262.55 3034.987 1261.87 3033.319 1261.15 L 3029.319 1259.42 L 3025.319 1257.72 L 3022.319 1256.42 L 3016.319 1254 L 3012.319 1252.43 L 3004.319 1249.57 L 3000.319 1248 C 2997.322 1246.8 2994.336 1245.57 2991.319 1244.42 L 2985.319 1242.19 L 2978.319 1239.42 L 2973.319 1237.58 L 2968.319 1235.6 L 2962.319 1233.2 C 2960.646 1232.53 2958.968 1231.87 2957.319 1231.14 C 2954.607 1229.94 2951.969 1228.58 2949.319 1227.25 L 2947.319 1226.24 L 2945.323 1225.2 L 2943.362 1224.03 L 2942.424 1223.36 L 2940.713 1221.79 L 2939.327 1219.96 L 2938.772 1218.98 L 2937.932 1217 L 2937.624 1216 L 2937.138 1214 C 2936.871 1212.68 2936.603 1211.35 2936.49 1210 L 2936.358 1208 L 2936.319 1204 L 2936.319 1196 L 2936.319 1162 C 2936.322 1160 2936.29 1157.99 2936.49 1156 C 2936.624 1154.66 2936.855 1153.32 2937.138 1152 C 2937.43 1150.64 2937.774 1149.29 2938.299 1148 C 2939.14 1145.93 2940.323 1143.96 2941.848 1142.33 C 2943.149 1140.93 2944.695 1139.84 2946.334 1138.88 C 2947.912 1137.96 2949.582 1137.17 2951.319 1136.6 C 2952.3 1136.27 2953.31 1136.04 2954.319 1135.82 C 2955.639 1135.54 2956.975 1135.31 2958.319 1135.17 C 2960.641 1134.94 2962.988 1135 2965.319 1135 L 2971.319 1135 C 2972.984 1135 2974.656 1134.97 2976.319 1135.09 C 2978 1135.21 2979.658 1135.48 2981.319 1135.75 C 2982.996 1136.03 2984.687 1136.29 2986.319 1136.79 L 2988.319 1137.48 L 2989.319 1137.92 L 2990.319 1138.42 L 2992.315 1139.65 L 2993.304 1140.39 L 2995.214 1142.1 C 2996.674 1143.56 2997.931 1145.21 2998.952 1147 C 2999.841 1148.56 3000.545 1150.24 3000.929 1152 C 3001.287 1153.64 3001.292 1155.33 3001.315 1157 L 3001.319 1162 L 3001.319 1184 L 3062.319 1184 L 3062.319 1160 L 3062.319 1151 C 3062.318 1148.67 3062.371 1146.32 3062.149 1144 C 3062.021 1142.66 3061.78 1141.33 3061.59 1140 L 3061.008 1136 L 3060.559 1134 L 3059.959 1132 C 3059.607 1131 3059.276 1129.98 3058.866 1129 L 3058.007 1127 L 3056.559 1124 C 3055.7 1122.29 3054.811 1120.6 3053.771 1119 C 3051.94 1116.17 3049.793 1113.55 3047.28 1111.3 C 3046.033 1110.19 3044.695 1109.16 3043.319 1108.21 C 3042.332 1107.53 3041.338 1106.86 3040.319 1106.23 C 3039.335 1105.62 3038.333 1105.05 3037.319 1104.49 C 3036.025 1103.78 3034.669 1103.19 3033.319 1102.59 L 3031.319 1101.73 C 3030.325 1101.32 3029.336 1100.9 3028.319 1100.54 C 3027.333 1100.2 3026.329 1099.91 3025.319 1099.64 C 3023.66 1099.2 3021.991 1098.81 3020.319 1098.42 L 3018.319 1097.99 L 3015.319 1097.27 C 3013.991 1096.93 3012.674 1096.55 3011.319 1096.32 C 3010.323 1096.16 3009.326 1096.09 3008.319 1096.04 L 3005.319 1095.91 L 3003.319 1095.71 L 3000.319 1095.29 C 2999.321 1095.16 2998.324 1095.08 2997.319 1095.04 L 2994.319 1095 L 2989.319 1095 L 2976.319 1095 L 2959.319 1095 L 2945.319 1095 L 2940.319 1095 C 2938.986 1095 2937.65 1095 2936.319 1095.09 L 2934.319 1095.29 L 2931.319 1095.72 C 2929.319 1095.98 2927.306 1096.11 2925.319 1096.46 C 2923.64 1096.77 2921.991 1097.21 2920.319 1097.55 L 2917.319 1098.09 C 2916.31 1098.28 2915.311 1098.49 2914.319 1098.76 C 2911.931 1099.4 2909.615 1100.29 2907.319 1101.2 C 2904.944 1102.14 2902.572 1103.11 2900.319 1104.32 C 2898.223 1105.45 2896.238 1106.76 2894.319 1108.16 C 2892.613 1109.41 2890.933 1110.71 2889.409 1112.17 L 2887.619 1114.04 L 2886.784 1115.01 L 2885.219 1117 L 2884.478 1118 C 2883.77 1118.99 2883.062 1119.97 2882.412 1121 C 2881.795 1121.98 2881.216 1122.97 2880.693 1124 C 2880.033 1125.3 2879.469 1126.65 2878.935 1128 C 2878.288 1129.64 2877.705 1131.3 2877.24 1133 C 2876.878 1134.32 2876.589 1135.66 2876.323 1137 C 2875.994 1138.66 2875.658 1140.32 2875.49 1142 C 2875.29 1143.99 2875.322 1146 2875.319 1148 L 2875.319 1154 L 2875.319 1176 L 2875.319 1211 L 2875.319 1222 L 2875.32 1225 L 2875.358 1228 C 2875.399 1229.01 2875.478 1230 2875.608 1231 C 2875.739 1232 2875.92 1233.01 2876.127 1234 L 2876.809 1237 L 2877.093 1238 L 2877.787 1240 L 2878.647 1242 L 2879.682 1244 L 2880.957 1246 L 2882.532 1247.99 L 2883.424 1248.96 L 2884.362 1249.91 L 2886.323 1251.67 L 2888.319 1253.21 L 2890.319 1254.53 C 2891.294 1255.14 2892.305 1255.68 2893.319 1256.22 L 2897.319 1258.25 C 2898.979 1259.08 2900.637 1259.91 2902.319 1260.69 L 2906.319 1262.42 L 2908.319 1263.31 L 2911.319 1264.69 L 2914.319 1265.99 C 2915.644 1266.54 2916.977 1267.07 2918.319 1267.58 L 2924.319 1269.81 L 2929.319 1271.8 L 2936.319 1274.6 L 2943.319 1277.4 L 2947.319 1279.01 L 2953.319 1281.55 L 2957.319 1283.05 L 2962.319 1284.95 L 2966.319 1286.45 C 2968.349 1287.28 2970.304 1288.27 2972.319 1289.13 C 2974.626 1290.11 2977.015 1290.88 2979.319 1291.87 C 2980.674 1292.45 2981.998 1293.1 2983.319 1293.76 L 2988.319 1296.25 C 2989.661 1296.93 2991.023 1297.58 2992.318 1298.35 L 2994.304 1299.64 L 2995.275 1300.39 L 2997.091 1302.1 L 2997.889 1303.04 L 2998.591 1304.02 L 2999.179 1305 L 2999.666 1306 L 3000.376 1308 C 3000.768 1309.31 3000.975 1310.65 3001.145 1312 L 3001.229 1313 L 3001.28 1314 L 3001.318 1317 L 3001.319 1327 L 3001.319 1362 L 3001.315 1365 C 3001.306 1366 3001.3 1367 3001.23 1368 C 3001.135 1369.34 3000.967 1370.68 3000.7 1372 L 3000.275 1374 L 2999.706 1376 L 2998.866 1378 L 2998.311 1379 L 2997.666 1380 L 2996.105 1381.96 L 2994.276 1383.79 L 2993.304 1384.61 L 2992.315 1385.35 L 2990.319 1386.58 L 2989.319 1387.08 L 2988.319 1387.52 L 2986.319 1388.21 C 2985.343 1388.49 2984.331 1388.71 2983.319 1388.81 L 2981.319 1388.96 L 2978.319 1389 L 2972.319 1389 L 2962.319 1389 L 2958.319 1388.98 C 2957.319 1388.96 2956.311 1388.93 2955.319 1388.79 L 2953.319 1388.39 L 2952.319 1388.1 C 2951.307 1387.75 2950.306 1387.39 2949.319 1386.98 C 2948.297 1386.56 2947.304 1386.09 2946.32 1385.59 L 2945.323 1385.01 L 2944.334 1384.35 L 2943.363 1383.61 L 2942.427 1382.79 L 2940.738 1380.96 L 2939.408 1379 L 2938.891 1378 L 2938.463 1377 L 2938.108 1376 L 2937.813 1375 C 2937.557 1374.01 2937.329 1373.01 2937.127 1372 C 2936.795 1370.34 2936.527 1368.68 2936.408 1367 C 2936.339 1366 2936.332 1365 2936.323 1364 L 2936.319 1361 L 2936.319 1352 Z"
    style="fill: #fdfdfd; stroke: none"
  />
  <path
    style="fill: #fdfdfd; stroke: none"
    d="M 3092.319 1095 L 3092.319 1135 L 3152.319 1135 L 3152.319 1429 L 3214.319 1429 L 3214.319 1135 L 3273.319 1135 L 3273.319 1095 L 3092.319 1095 Z"
  />
  <path
    style="fill: #fdfdfd; stroke: none"
    d="M 3306.319 1429 L 3368.319 1429 L 3368.319 1307 L 3440.319 1307 L 3440.319 1429 L 3502.319 1429 L 3502.319 1212 L 3502.319 1163 L 3502.319 1155 C 3502.319 1153.33 3502.339 1151.66 3502.229 1150 C 3502.089 1147.99 3501.699 1146.01 3501.489 1144 L 3501.149 1140 L 3500.879 1138 L 3500.299 1135 C 3500.089 1133.99 3499.849 1132.99 3499.549 1132 C 3499.029 1130.29 3498.379 1128.63 3497.649 1127 C 3496.579 1124.58 3495.309 1122.23 3493.879 1120 C 3493.219 1118.98 3492.549 1117.95 3491.789 1117 L 3490.129 1115 L 3488.279 1113.04 C 3487.319 1112.1 3486.349 1111.19 3485.319 1110.33 C 3483.439 1108.75 3481.399 1107.36 3479.319 1106.07 C 3476.159 1104.1 3472.809 1102.39 3469.319 1101.07 C 3468.329 1100.69 3467.329 1100.36 3466.319 1100.04 L 3464.319 1099.48 L 3460.319 1098.53 L 3455.319 1097.24 C 3453.669 1096.85 3451.999 1096.54 3450.319 1096.29 C 3448.989 1096.08 3447.649 1096 3446.319 1095.84 C 3444.319 1095.61 3442.329 1095.23 3440.319 1095.09 C 3438.989 1095 3437.649 1095 3436.319 1095 L 3430.319 1095 L 3413.319 1095 L 3395.319 1095 L 3379.319 1095 L 3373.319 1095 C 3371.989 1095 3370.649 1095 3369.319 1095.09 C 3368.309 1095.16 3367.319 1095.29 3366.319 1095.42 L 3364.319 1095.72 C 3362.659 1095.92 3360.989 1096.02 3359.319 1096.17 L 3357.319 1096.44 C 3355.639 1096.71 3353.969 1097.08 3352.319 1097.47 L 3348.319 1098.53 L 3344.319 1099.49 L 3342.319 1100.09 C 3340.969 1100.54 3339.639 1101.07 3338.319 1101.6 C 3336.979 1102.15 3335.629 1102.7 3334.319 1103.32 C 3333.299 1103.8 3332.299 1104.32 3331.319 1104.88 C 3329.229 1106.07 3327.239 1107.44 3325.319 1108.9 C 3323.959 1109.93 3322.609 1111 3321.359 1112.17 C 3320.399 1113.07 3319.489 1114.02 3318.619 1115.01 C 3317.249 1116.58 3315.999 1118.26 3314.869 1120 C 3313.629 1121.91 3312.579 1123.95 3311.579 1126 C 3310.629 1127.95 3309.729 1129.92 3309.089 1132 C 3308.789 1132.99 3308.549 1133.99 3308.339 1135 C 3308.049 1136.33 3307.809 1137.66 3307.589 1139 L 3307.189 1142 C 3306.909 1144 3306.549 1145.99 3306.409 1148 C 3306.339 1149 3306.329 1150 3306.319 1151 L 3306.319 1154 L 3306.319 1164 L 3306.319 1219 L 3306.319 1429 Z"
  />

  <path
    style="fill: #fdfdfd; stroke: none"
    d="M 3557.319 1095 L 3557.319 1429 L 3619.319 1429 L 3619.319 1294 L 3645.319 1294 L 3649.319 1294 L 3651.319 1294.02 C 3652.909 1294.09 3654.629 1294.13 3656.019 1295.03 L 3657.389 1296.32 L 3657.899 1297.15 L 3658.689 1299.02 L 3659.339 1301 L 3660.319 1304 L 3662.289 1310 L 3664.039 1316 L 3665.599 1321 L 3666.739 1325 L 3667.979 1329 L 3668.899 1332 L 3670.349 1337 L 3672.599 1344 L 3674.349 1350 L 3676.289 1356 L 3678.349 1363 L 3680.599 1370 L 3681.739 1374 L 3682.899 1378 L 3684.039 1382 L 3685.299 1386 L 3686.819 1391 L 3688.119 1395 L 3690.039 1402 L 3691.599 1407 L 3693.039 1412 L 3694.299 1416 L 3695.509 1420 L 3696.809 1423.98 C 3697.339 1425.64 3697.829 1427.32 3698.319 1429 L 3757.319 1429 L 3756.789 1427.33 L 3753.989 1419 L 3752.659 1415 L 3751.739 1412 L 3750.289 1407 L 3747.349 1398 L 3745.899 1393 L 3744.979 1390 C 3743.799 1386.32 3742.489 1382.69 3741.349 1379 L 3739.289 1372 C 3738.039 1367.98 3736.599 1364.02 3735.349 1360 L 3733.289 1353 L 3731.039 1346 L 3729.599 1341 C 3729.199 1339.66 3728.759 1338.33 3728.319 1337 C 3727.549 1334.67 3726.749 1332.35 3726.039 1330 L 3724.899 1326 L 3723.439 1321 L 3721.199 1314 L 3719.739 1309 L 3718.899 1306 C 3718.499 1304.66 3718.079 1303.33 3717.649 1302 L 3716.319 1298 C 3715.999 1297 3715.679 1296.02 3715.419 1295 L 3715.159 1293.05 L 3715.529 1291.27 L 3716.679 1289.81 L 3717.479 1289.21 L 3719.339 1288.18 L 3720.319 1287.71 L 3722.319 1286.73 L 3724.319 1285.69 C 3725.329 1285.12 3726.339 1284.55 3727.319 1283.93 C 3729.039 1282.87 3730.729 1281.73 3732.319 1280.48 L 3734.319 1278.82 L 3735.309 1277.91 L 3737.229 1275.99 C 3738.139 1275.05 3738.989 1274.04 3739.789 1273 C 3740.529 1272.04 3741.209 1271.03 3741.849 1270 C 3742.459 1269.02 3742.999 1268.01 3743.539 1267 L 3744.559 1265 C 3745.049 1264.01 3745.549 1263.02 3745.979 1262 L 3746.769 1260 L 3747.409 1258 C 3747.859 1256.34 3748.279 1254.68 3748.669 1253 C 3748.969 1251.67 3749.259 1250.34 3749.519 1249 C 3749.769 1247.67 3750.009 1246.34 3750.149 1245 C 3750.319 1243.34 3750.309 1241.67 3750.319 1240 L 3750.319 1236 L 3750.319 1221 L 3750.319 1164 L 3750.319 1151 L 3750.319 1147 C 3750.309 1145.33 3750.319 1143.66 3750.149 1142 C 3750.019 1140.66 3749.789 1139.32 3749.509 1138 C 3749.299 1137 3749.099 1135.99 3748.839 1135 C 3748.499 1133.65 3748.079 1132.32 3747.649 1131 C 3746.639 1127.92 3745.549 1124.84 3743.969 1122 C 3742.999 1120.25 3741.859 1118.59 3740.639 1117 C 3738.479 1114.2 3736.029 1111.6 3733.319 1109.33 C 3732.049 1108.26 3730.699 1107.27 3729.319 1106.36 C 3727.699 1105.29 3726.059 1104.25 3724.319 1103.37 C 3722.069 1102.23 3719.699 1101.34 3717.319 1100.52 L 3714.319 1099.59 C 3711.999 1098.9 3709.679 1098.19 3707.319 1097.67 C 3705.339 1097.22 3703.319 1096.92 3701.319 1096.59 L 3696.319 1095.75 C 3694.659 1095.48 3692.999 1095.21 3691.319 1095.09 C 3689.989 1095 3688.649 1095 3687.319 1095 L 3683.319 1095 L 3670.319 1095 L 3557.319 1095 Z"
  />
  <path
    style="fill: #1a1a1a; stroke: none"
    d="M 3369.319 1266 L 3440.319 1266 L 3440.319 1184 L 3440.319 1162 L 3440.319 1157 C 3440.299 1155.33 3440.279 1153.65 3439.989 1152 C 3439.689 1150.27 3439.149 1148.58 3438.399 1147 L 3437.329 1145 L 3436.669 1144.02 L 3435.109 1142.1 L 3433.279 1140.39 L 3431.319 1139.01 L 3430.319 1138.44 L 3429.319 1137.97 L 3427.319 1137.22 C 3426.339 1136.9 3425.329 1136.68 3424.319 1136.47 L 3422.319 1136.16 L 3419.319 1135.84 C 3417.319 1135.6 3415.329 1135.23 3413.319 1135.09 C 3411.989 1135 3410.649 1135 3409.319 1135 L 3405.319 1135 L 3399.319 1135 C 3397.649 1135 3395.979 1134.98 3394.319 1135.09 C 3392.309 1135.23 3390.319 1135.6 3388.319 1135.85 L 3385.319 1136.2 L 3383.319 1136.61 C 3382.299 1136.88 3381.299 1137.24 3380.319 1137.63 C 3378.929 1138.2 3377.569 1138.84 3376.339 1139.7 C 3374.649 1140.87 3373.179 1142.32 3372.019 1144.02 C 3370.799 1145.81 3370.029 1147.87 3369.649 1150 C 3369.409 1151.32 3369.359 1152.66 3369.329 1154 L 3369.319 1158 L 3369.319 1179 L 3369.319 1266 Z"
  />
  <path
    style="fill: #1a1a1a; stroke: none"
    d="M 3620.319 1135 L 3620.319 1256 L 3657.319 1256 L 3661.319 1256 C 3662.319 1255.99 3663.319 1255.98 3664.319 1255.91 C 3666.009 1255.79 3667.659 1255.52 3669.319 1255.19 C 3670.329 1254.99 3671.319 1254.76 3672.319 1254.51 L 3673.319 1254.23 L 3675.319 1253.52 L 3677.319 1252.62 L 3679.279 1251.52 L 3680.229 1250.89 L 3681.989 1249.47 L 3683.529 1247.81 L 3684.209 1246.91 L 3684.839 1245.96 C 3685.389 1245 3685.949 1244.04 3686.339 1243 L 3686.709 1242 L 3687.019 1241 L 3687.279 1240 L 3687.499 1239 C 3687.769 1237.67 3688.009 1236.35 3688.149 1235 C 3688.319 1233.34 3688.309 1231.67 3688.319 1230 L 3688.319 1224 L 3688.319 1167 L 3688.319 1159 C 3688.309 1156.65 3688.319 1154.3 3687.789 1152 L 3687.209 1150 L 3686.839 1149 L 3686.399 1148 L 3685.329 1146 L 3683.929 1144.04 L 3683.109 1143.09 L 3682.219 1142.19 L 3680.299 1140.53 C 3679.069 1139.57 3677.739 1138.72 3676.319 1138.05 C 3675.349 1137.59 3674.349 1137.24 3673.319 1136.94 C 3672.009 1136.56 3670.669 1136.33 3669.319 1136.16 L 3666.319 1135.84 L 3664.319 1135.58 C 3662.989 1135.4 3661.669 1135.16 3660.319 1135.09 C 3658.319 1134.98 3656.319 1135 3654.319 1135 L 3646.319 1135 L 3620.319 1135 Z"
  />
  <path
    fill="currentColor"
    style="stroke: none"
    d="M 3256.319 1568 L 3212.319 1568 L 3212.319 1575 L 3235.319 1575 L 3238.319 1575 C 3239.318 1575 3240.317 1575 3241.314 1575.06 L 3243.26 1575.32 L 3244.171 1575.6 L 3245.001 1576.03 L 3245.716 1576.6 L 3246.716 1578.15 L 3247.171 1580.02 L 3247.26 1581 L 3247.318 1584 L 3247.319 1586 L 3247.319 1607 L 3247.3 1611 L 3247.26 1612 L 3247.001 1613.99 L 3246.291 1615.91 L 3245.716 1616.81 L 3244.171 1618.47 L 3242.3 1619.89 L 3240.318 1621.09 C 3239.337 1621.61 3238.35 1622.12 3237.319 1622.54 C 3235.034 1623.45 3232.693 1624.2 3230.319 1624.85 C 3228.993 1625.21 3227.658 1625.55 3226.319 1625.87 C 3224.663 1626.26 3223.014 1626.64 3221.319 1626.83 C 3219.329 1627.04 3217.317 1627 3215.319 1627 C 3213.32 1627 3211.311 1627.03 3209.319 1626.83 C 3207.637 1626.66 3205.974 1626.33 3204.319 1626 L 3201.319 1625.33 L 3200.319 1625.08 L 3198.319 1624.48 C 3196.97 1624.02 3195.642 1623.51 3194.319 1622.99 C 3192.962 1622.44 3191.617 1621.85 3190.319 1621.18 C 3187.438 1619.69 3184.781 1617.81 3182.32 1615.7 C 3180.282 1613.95 3178.368 1612.06 3176.645 1610 C 3175.07 1608.12 3173.679 1606.08 3172.385 1604 C 3171.773 1603.02 3171.186 1602.02 3170.631 1601 C 3170.094 1600.01 3169.596 1599.01 3169.104 1598 C 3168.625 1597.02 3168.181 1596.02 3167.783 1595 C 3166.891 1592.72 3166.272 1590.35 3165.613 1588 C 3165.24 1586.67 3164.865 1585.35 3164.554 1584 L 3163.935 1581 L 3163.608 1579 C 3163.478 1578 3163.401 1577.01 3163.358 1576 L 3163.28 1573 C 3163.232 1572 3163.163 1571 3163.033 1570 L 3162.503 1566 L 3162.448 1564 C 3162.498 1561.98 3162.939 1560 3163.153 1558 L 3163.489 1554 L 3163.783 1552 C 3164.083 1550.32 3164.525 1548.66 3164.949 1547 C 3165.908 1543.25 3167.001 1539.52 3168.642 1536 C 3169.771 1533.58 3171.129 1531.26 3172.548 1529 C 3174.302 1526.21 3176.204 1523.48 3178.493 1521.09 C 3179.685 1519.85 3180.98 1518.7 3182.323 1517.62 C 3183.309 1516.83 3184.303 1516.05 3185.319 1515.3 L 3186.319 1514.6 L 3188.319 1513.35 C 3189.307 1512.79 3190.308 1512.27 3191.319 1511.76 C 3193.274 1510.77 3195.256 1509.83 3197.319 1509.09 C 3199.277 1508.39 3201.302 1507.88 3203.319 1507.38 C 3204.647 1507.04 3205.976 1506.73 3207.319 1506.46 L 3208.319 1506.3 C 3209.311 1506.14 3210.317 1506.08 3211.319 1506.04 L 3213.319 1506 L 3216.319 1506 C 3217.986 1506.01 3219.659 1506 3221.319 1506.17 C 3223.35 1506.39 3225.344 1506.87 3227.319 1507.38 L 3229.319 1507.91 L 3231.319 1508.55 L 3233.319 1509.34 C 3234.336 1509.78 3235.342 1510.26 3236.319 1510.79 L 3237.319 1511.31 L 3239.319 1512.46 L 3241.317 1513.75 C 3243.147 1514.97 3244.906 1516.31 3246.648 1517.66 L 3248.319 1519 L 3249.964 1517.94 L 3250.433 1517.53 L 3251.319 1516.84 L 3252.674 1515.61 L 3254.319 1514 L 3253.233 1512.43 L 3252.802 1512.01 L 3251.998 1511.14 L 3250.26 1509.64 L 3249.301 1508.9 C 3248 1507.92 3246.687 1506.97 3245.319 1506.09 C 3243.392 1504.85 3241.375 1503.79 3239.319 1502.78 C 3238.018 1502.15 3236.682 1501.58 3235.319 1501.09 C 3233.042 1500.27 3230.682 1499.71 3228.319 1499.21 C 3226.006 1498.72 3223.681 1498.26 3221.319 1498.09 C 3219.657 1497.97 3217.984 1498 3216.319 1498 C 3214.318 1498 3212.313 1497.98 3210.319 1498.17 C 3208.645 1498.33 3206.989 1498.64 3205.319 1498.84 L 3202.319 1499.16 L 3200.319 1499.46 C 3198.629 1499.78 3196.964 1500.23 3195.319 1500.72 C 3193.63 1501.23 3191.954 1501.79 3190.319 1502.45 C 3188.616 1503.14 3186.961 1503.94 3185.319 1504.76 C 3183.621 1505.61 3181.948 1506.49 3180.319 1507.47 C 3178.913 1508.31 3177.582 1509.29 3176.319 1510.33 C 3174.562 1511.78 3172.931 1513.38 3171.334 1515 C 3170.369 1515.98 3169.412 1516.97 3168.503 1518 C 3167.652 1518.97 3166.848 1519.97 3166.08 1521 C 3164.428 1523.22 3162.979 1525.59 3161.631 1528 C 3160.905 1529.3 3160.263 1530.65 3159.628 1532 C 3159.011 1533.31 3158.465 1534.66 3157.923 1536 C 3157.257 1537.65 3156.609 1539.31 3156.065 1541 C 3155.537 1542.65 3155.118 1544.32 3154.694 1546 C 3154.359 1547.32 3154.022 1548.66 3153.783 1550 C 3153.605 1551 3153.486 1551.99 3153.395 1553 L 3153.153 1556 L 3152.489 1561 C 3152.362 1562.33 3152.337 1563.66 3152.327 1565 L 3152.358 1567 C 3152.401 1568.01 3152.481 1569 3152.605 1570 L 3153.15 1574 C 3153.283 1575.33 3153.319 1576.67 3153.405 1578 L 3153.608 1580 C 3153.875 1582.02 3154.321 1584.02 3154.794 1586 L 3155.845 1590 L 3156.808 1594 C 3157.086 1595.02 3157.408 1596.02 3157.786 1597 C 3158.177 1598.02 3158.635 1599.01 3159.101 1600 C 3159.734 1601.35 3160.402 1602.67 3161.075 1604 C 3162.113 1606.04 3163.164 1608.08 3164.42 1610 C 3165.557 1611.74 3166.835 1613.37 3168.127 1615 C 3169.184 1616.32 3170.284 1617.63 3171.49 1618.83 C 3173.56 1620.88 3175.935 1622.61 3178.319 1624.28 C 3179.95 1625.42 3181.611 1626.51 3183.319 1627.54 C 3184.288 1628.12 3185.299 1628.63 3186.319 1629.11 C 3187.625 1629.73 3188.973 1630.27 3190.319 1630.8 C 3191.314 1631.18 3192.306 1631.59 3193.319 1631.92 C 3194.965 1632.47 3196.622 1632.97 3198.319 1633.33 C 3199.313 1633.54 3200.309 1633.71 3201.319 1633.83 L 3205.319 1634.17 L 3210.319 1634.83 C 3211.977 1634.99 3213.655 1635.02 3215.319 1634.96 C 3216.325 1634.92 3217.32 1634.84 3218.319 1634.71 L 3222.319 1634.17 L 3225.319 1633.93 C 3226.325 1633.84 3227.322 1633.72 3228.319 1633.56 L 3230.319 1633.19 L 3232.319 1632.76 C 3233.327 1632.52 3234.326 1632.26 3235.319 1631.96 C 3237.011 1631.45 3238.672 1630.83 3240.319 1630.19 C 3241.665 1629.66 3243.012 1629.13 3244.319 1628.51 C 3245.346 1628.02 3246.342 1627.49 3247.319 1626.91 L 3249.318 1625.64 L 3251.3 1624.24 C 3252.561 1623.27 3253.808 1622.23 3254.716 1620.91 L 3255.716 1618.99 L 3256.171 1617 L 3256.26 1616 L 3256.318 1613 L 3256.319 1605 L 3256.319 1568 Z"
  />

  <path
    fill="currentColor"
    style="stroke: none"
    d="M 3260.319 1500 L 3260.98 1501.67 L 3261.22 1502.16 L 3261.669 1503.16 L 3262.592 1505.02 C 3263.275 1506.37 3263.999 1507.69 3264.743 1509 L 3266.459 1512 L 3269.179 1517 L 3272.013 1522 L 3274.179 1526 L 3277.01 1531 L 3280.628 1538 L 3284.013 1544 L 3286.693 1549 L 3291.549 1558 L 3293.739 1562 L 3296.009 1566 C 3297.259 1568.3 3298.389 1570.67 3299.579 1573 L 3301.139 1576 C 3301.789 1577.29 3302.439 1578.59 3302.819 1580 C 3303.179 1581.31 3303.259 1582.65 3303.299 1584 L 3303.319 1587 L 3303.319 1598 L 3303.319 1632 L 3312.319 1632 L 3312.319 1598 L 3312.319 1588 C 3312.319 1585.33 3312.219 1582.6 3312.959 1580 L 3313.669 1578 L 3314.119 1577 L 3314.589 1576 C 3315.099 1574.99 3315.629 1573.99 3316.179 1573 L 3317.899 1570 L 3319.009 1568 L 3321.179 1564 L 3324.009 1559 L 3327.629 1552 L 3331.009 1546 L 3332.579 1543 L 3334.179 1540 L 3337.009 1535 C 3337.899 1533.35 3338.719 1531.67 3339.579 1530 L 3341.179 1527 L 3344.009 1522 L 3345.579 1519 C 3346.279 1517.65 3346.999 1516.32 3347.739 1515 L 3350.009 1511 L 3352.609 1506 L 3354.099 1503.16 L 3354.539 1502.16 L 3354.779 1501.67 L 3355.319 1500 L 3353.159 1500 L 3351.279 1500.02 L 3350.299 1500.06 L 3349.329 1500.15 L 3348.359 1500.32 L 3346.529 1501.03 L 3344.959 1502.32 L 3344.289 1503.15 C 3343.389 1504.33 3342.749 1505.69 3342.079 1507 L 3341.069 1509 L 3338.569 1514 L 3336.539 1518 C 3335.469 1520.03 3334.299 1522 3333.179 1524 L 3331.579 1527 L 3327.059 1536 L 3325.459 1539 C 3324.729 1540.33 3323.969 1541.65 3323.289 1543 L 3321.849 1546 C 3321.349 1547.01 3320.829 1548.01 3320.289 1549 L 3318.619 1552 L 3316.459 1556 L 3314.739 1559 L 3313.039 1562 C 3311.929 1563.95 3310.799 1565.87 3309.729 1567.84 L 3309.249 1568.84 L 3308.989 1569.33 L 3308.319 1571 L 3307.199 1569.33 C 3306.489 1568.23 3305.809 1567.11 3305.169 1565.98 C 3304.059 1564.01 3303.089 1561.98 3302.009 1560 L 3299.739 1556 C 3298.999 1554.68 3298.269 1553.35 3297.579 1552 L 3295.069 1547 L 3291.569 1540 C 3290.396 1537.66 3289.255 1535.3 3288.01 1533 L 3284.628 1527 C 3283.027 1524.04 3281.596 1520.99 3280.061 1518 L 3277.427 1513 L 3275.945 1510 L 3274.437 1507 C 3273.756 1505.72 3273.03 1504.47 3272.399 1503.16 L 3271.774 1501.67 L 3271.319 1500 L 3260.319 1500 Z"
  />
  <path
    fill="currentColor"
    style="stroke: none"
    d="M 3365.319 1500 L 3365.319 1632 L 3373.319 1632 L 3373.319 1558 L 3373.319 1533 L 3373.319 1525 C 3373.319 1523.34 3373.349 1521.66 3373.279 1520 C 3373.239 1518.99 3373.159 1518 3373.029 1517 L 3372.489 1513.16 L 3372.359 1511.67 L 3372.319 1510 L 3373.449 1511.09 L 3373.689 1511.52 L 3374.249 1512.32 L 3375.099 1514.06 L 3376.319 1517 L 3377.899 1521 L 3378.999 1524 L 3380.519 1528 L 3382.899 1534 L 3384.739 1539 L 3386.319 1543 L 3387.899 1547 L 3390.129 1553 L 3392.119 1558 L 3396.119 1568 L 3397.269 1571 L 3399.129 1576 L 3400.719 1580 L 3403.519 1587 L 3405.509 1592 L 3407.369 1597 C 3408.119 1599.01 3408.919 1601.01 3409.719 1603 L 3412.119 1609 C 3412.899 1610.94 3413.679 1612.88 3414.409 1614.84 L 3414.729 1615.84 L 3414.909 1616.33 L 3415.319 1618 C 3416.989 1618 3418.659 1618.04 3420.329 1617.94 C 3421.529 1617.87 3422.799 1617.68 3423.809 1616.97 C 3424.869 1616.23 3425.439 1615.08 3425.959 1613.94 L 3426.739 1612 L 3427.509 1610 L 3429.769 1604 L 3431.409 1600 L 3432.849 1596 C 3433.349 1594.65 3433.919 1593.33 3434.469 1592 C 3435.719 1589.01 3436.919 1586.01 3438.119 1583 C 3439.049 1580.67 3439.999 1578.35 3440.899 1576 L 3442.369 1572 L 3443.519 1569 L 3447.519 1559 L 3449.509 1554 L 3451.369 1549 L 3452.519 1546 L 3456.509 1536 L 3457.629 1533 L 3459.009 1529 L 3460.899 1524 L 3462.369 1520 L 3463.899 1516 C 3464.389 1514.77 3464.839 1513.51 3465.439 1512.32 L 3465.969 1511.52 L 3466.199 1511.09 L 3467.319 1510 L 3467.319 1514.04 C 3467.309 1515.36 3467.319 1516.68 3467.229 1518 C 3467.089 1520.01 3466.709 1522 3466.489 1524 C 3466.339 1525.33 3466.339 1526.67 3466.319 1528 L 3466.319 1532 L 3466.319 1540 L 3466.319 1563 L 3466.319 1632 L 3475.319 1632 L 3475.319 1500 L 3461.319 1500 L 3460.789 1501.67 C 3460.179 1503.46 3459.559 1505.24 3458.889 1507 L 3456.129 1514 L 3453.899 1520 L 3450.739 1528 L 3448.899 1533 L 3447.739 1536 L 3445.899 1541 L 3444.739 1544 L 3442.899 1549 L 3440.129 1556 L 3437.899 1562 L 3435.129 1569 L 3433.269 1574 L 3431.739 1578 L 3430.269 1582 L 3428.009 1588 L 3426.269 1593 L 3424.369 1598 L 3422.899 1602 L 3421.769 1604.84 L 3421.129 1606.33 L 3420.319 1608 L 3419.509 1606.33 L 3418.869 1604.84 C 3418.349 1603.57 3417.849 1602.29 3417.369 1601 L 3415.899 1597 C 3414.749 1593.99 3413.479 1591.02 3412.369 1588 C 3411.519 1585.67 3410.779 1583.3 3409.869 1581 L 3407.769 1576 L 3406.269 1572 L 3404.369 1567 L 3402.899 1563 C 3401.369 1558.98 3399.689 1555.01 3398.129 1551 L 3396.269 1546 L 3394.739 1542 L 3392.899 1537 L 3389.369 1528 L 3387.509 1523 L 3384.739 1516 L 3383.269 1512 L 3382.119 1509 C 3381.469 1507.34 3380.829 1505.67 3380.079 1504.06 C 3379.549 1502.92 3378.879 1501.76 3377.819 1501.03 C 3376.499 1500.12 3374.849 1500.09 3373.319 1500.02 L 3370.339 1500 L 3365.319 1500 Z"
  />
</svg>
